<svg width="105" height="52" viewBox="0 0 105 52" fill="none" xmlns="http://www.w3.org/2000/svg">
<path d="M2.7343 23.8076H6.62974V26.9914C8.00313 24.5692 10.1506 23.3582 13.0722 23.3582C15.4944 23.3582 17.4546 24.1323 18.9528 25.6804C20.4511 27.2037 21.2002 29.4136 21.2002 32.3102C21.2002 34.1081 20.8256 35.6937 20.0765 37.0671C19.3523 38.4405 18.3535 39.5018 17.08 40.2509C15.8315 41 14.4331 41.3746 12.8849 41.3746C11.4366 41.3746 10.1756 41.1249 9.10184 40.6254C8.05307 40.1011 7.22903 39.3644 6.62974 38.4155L6.66719 50.1018H2.7343V23.8076ZM11.9485 37.9661C13.5716 37.9661 14.8201 37.4542 15.6941 36.4304C16.5681 35.3816 17.0051 34.0456 17.0051 32.4225C17.0051 30.7245 16.5681 29.3761 15.6941 28.3773C14.8451 27.3535 13.5966 26.8416 11.9485 26.8416C11.0496 26.8416 10.2006 27.0663 9.40149 27.5158C8.6274 27.9403 8.00313 28.5646 7.52868 29.3886C7.07921 30.1877 6.85447 31.1241 6.85447 32.1978V32.46C6.85447 33.5337 7.07921 34.4951 7.52868 35.3441C8.00313 36.1682 8.6274 36.8174 9.40149 37.2918C10.1756 37.7413 11.0246 37.9661 11.9485 37.9661ZM22.7865 23.8076H27.3936L31.1018 31.5611L32.3004 34.6699L33.499 31.5611L37.1697 23.8076H41.6644L32.6375 41H31.8509L22.7865 23.8076ZM59.7932 41H55.0362L51.5528 35.3816L50.579 33.4713L48.3316 35.906V41H44.4361V13.4697H48.2941V28.5646L48.2192 31.4861L54.774 23.8076H59.7557L53.2758 30.9992L59.7932 41ZM71.0291 41.3746C69.2562 41.3746 67.683 40.975 66.3097 40.176C64.9363 39.3769 63.875 38.2907 63.1259 36.9173C62.3768 35.5439 62.0022 34.0207 62.0022 32.3476C62.0022 30.6996 62.3643 29.1888 63.0884 27.8154C63.8376 26.442 64.8988 25.3558 66.2722 24.5568C67.6456 23.7577 69.2312 23.3582 71.0291 23.3582C72.827 23.3582 74.4002 23.7577 75.7486 24.5568C77.122 25.3558 78.1708 26.442 78.8949 27.8154C79.644 29.1888 80.0186 30.6996 80.0186 32.3476C80.0186 34.0207 79.644 35.5439 78.8949 36.9173C78.1458 38.2907 77.0845 39.3769 75.7111 40.176C74.3627 40.975 72.8021 41.3746 71.0291 41.3746ZM71.1415 38.0784C72.5898 38.0784 73.726 37.5415 74.55 36.4678C75.399 35.3941 75.8235 34.0456 75.8235 32.4225C75.8235 30.7994 75.374 29.4385 74.4751 28.3398C73.5761 27.2161 72.39 26.6543 70.9168 26.6543C69.4934 26.6543 68.3448 27.2037 67.4708 28.3024C66.6218 29.4011 66.1973 30.7745 66.1973 32.4225C66.1973 34.0207 66.6592 35.3691 67.5832 36.4678C68.5071 37.5415 69.6932 38.0784 71.1415 38.0784ZM92.6914 49.9895C91.4179 49.9895 90.1568 49.8147 88.9083 49.4651C87.6847 49.1155 86.8108 48.7909 86.2864 48.4912L87.1853 44.7456C88.8334 45.8194 90.6313 46.3562 92.579 46.3562C94.0772 46.3562 95.3383 45.9942 96.3621 45.27C97.3859 44.5458 97.9103 43.135 97.9352 41.0375V37.9661C97.4108 38.9399 96.5618 39.7515 95.3882 40.4007C94.2146 41.0499 92.9161 41.3746 91.4928 41.3746C89.9945 41.3746 88.6211 41.0125 87.3726 40.2883C86.1241 39.5392 85.1377 38.478 84.4136 37.1046C83.6894 35.7312 83.3273 34.133 83.3273 32.3102C83.3273 30.5622 83.6644 29.014 84.3386 27.6656C85.0378 26.2922 86.0242 25.231 87.2977 24.4818C88.5712 23.7327 90.057 23.3582 91.755 23.3582C92.7538 23.3582 93.6902 23.533 94.5642 23.8825C95.4381 24.2321 96.1748 24.6691 96.7741 25.1935C97.3984 25.6929 97.8104 26.1923 98.0101 26.6918L98.085 23.8076H101.906V40.8876C101.906 43.8092 101.156 46.0566 99.6582 47.6297C98.16 49.2029 95.8377 49.9895 92.6914 49.9895ZM92.6165 37.9661C94.0398 37.9661 95.2384 37.4791 96.2122 36.5053C97.1861 35.5064 97.673 34.208 97.673 32.6098V32.3476C97.673 31.2739 97.4483 30.3125 96.9988 29.4635C96.5493 28.6145 95.9376 27.9528 95.1635 27.4783C94.3894 27.0039 93.5404 26.7667 92.6165 26.7667C91.0183 26.7667 89.7823 27.2911 88.9083 28.3398C88.0343 29.3636 87.5973 30.6996 87.5973 32.3476C87.5973 34.0207 88.0218 35.3816 88.8708 36.4304C89.7448 37.4542 90.9934 37.9661 92.6165 37.9661Z" fill="white"/>
</svg>
