<svg width="137" height="47" viewBox="0 0 137 47" fill="none" xmlns="http://www.w3.org/2000/svg">
<path d="M0.897189 46V0.0596997H15.3556C17.9467 0.0596997 20.0455 0.681565 21.6519 1.92529C23.2584 3.1172 24.0617 5.03462 24.0617 7.67755V15.1399C24.0617 17.7829 23.2584 19.8298 21.6519 21.2809C20.0973 22.7319 17.9726 23.5092 15.2778 23.6128V23.5351C16.9361 23.6388 18.1799 24.2347 19.009 25.323C19.8382 26.3594 20.5637 27.9918 21.1855 30.2202L25.9273 46H20.4859L16.2884 30.5311C15.8738 29.0801 15.3296 27.7845 14.656 26.6444C14.0341 25.4525 12.9977 24.8566 11.5466 24.8566H5.94985V46H0.897189ZM5.94985 21.3586H12.7904C15.1742 21.3586 16.8325 20.8145 17.7653 19.7262C18.7499 18.5861 19.2422 16.9278 19.2422 14.7513V8.53261C19.2422 6.61519 18.7758 5.216 17.843 4.33502C16.962 3.40223 15.5888 2.93583 13.7232 2.93583H5.94985V21.3586ZM42.2561 46.6996C39.665 46.6996 37.5662 46.4146 35.9597 45.8445C34.3532 45.2227 33.1872 44.1085 32.4617 42.502C31.7362 40.8955 31.3734 38.5635 31.3734 35.506V16.3059C31.3734 12.6784 32.1767 10.1909 33.7832 8.84355C35.4415 7.49617 38.1621 6.82249 41.9452 6.82249C45.6245 6.82249 48.2675 7.49617 49.8739 8.84355C51.5322 10.1909 52.3614 12.6784 52.3614 16.3059V26.2558H36.1929V37.1384C36.1929 39.6259 36.5816 41.3619 37.3589 42.3465C38.1362 43.2793 39.7168 43.7457 42.1006 43.7457C44.2772 43.7457 45.7282 43.2793 46.4537 42.3465C47.1792 41.4137 47.5419 39.6777 47.5419 37.1384V32.1635H52.3614V35.4283C52.3614 38.434 51.9986 40.766 51.2731 42.4243C50.5476 44.0308 49.4335 45.1449 47.9306 45.7668C46.4796 46.3887 44.5881 46.6996 42.2561 46.6996ZM36.1929 23.7683H47.5419V16.1505C47.5419 13.9739 47.1792 12.3934 46.4537 11.4087C45.7282 10.4241 44.2253 9.93181 41.9452 9.93181C39.665 9.93181 38.1362 10.4241 37.3589 11.4087C36.5816 12.3934 36.1929 13.9739 36.1929 16.1505V23.7683ZM59.2548 46V7.52208H63.2191L63.841 11.6419C64.2556 10.0873 65.2143 8.89537 66.7171 8.06621C68.22 7.23706 69.7746 6.82249 71.3811 6.82249C74.1277 6.82249 76.1229 7.3148 77.3666 8.29942C78.6621 9.23221 79.4913 10.4759 79.854 12.0306C80.2168 13.5334 80.3982 15.1918 80.3982 17.0055V46H75.5787V17.7051C75.5787 16.7723 75.5528 15.8654 75.501 14.9845C75.4492 14.1035 75.2419 13.3262 74.8791 12.6525C74.5682 11.927 74.0241 11.3569 73.2467 10.9423C72.4694 10.5278 71.3293 10.3205 69.8265 10.3205C68.5309 10.3205 67.4686 10.5796 66.6394 11.0978C65.8621 11.5642 65.2661 12.1343 64.8515 12.8079C64.4888 13.4298 64.2297 14.0258 64.0742 14.5958V46H59.2548ZM96.498 46.6219C93.8033 46.6219 91.8081 46.1555 90.5126 45.2227C89.217 44.238 88.3879 42.9684 88.0251 41.4137C87.6624 39.8591 87.481 38.2008 87.481 36.4388V7.52208H92.3005V35.817C92.3005 36.957 92.3523 38.0971 92.4559 39.2372C92.6114 40.3255 93.1037 41.2324 93.9329 41.9579C94.762 42.6316 96.1353 42.9684 98.0527 42.9684C99.4001 42.9684 100.462 42.7352 101.24 42.2688C102.017 41.8024 102.613 41.2583 103.028 40.6364C103.442 39.9627 103.701 39.3668 103.805 38.8485V7.52208H108.624V46H104.505L104.116 41.8024C103.701 43.0461 102.846 44.1603 101.551 45.1449C100.307 46.1296 98.6228 46.6219 96.498 46.6219ZM126.821 46.6996C124.23 46.6996 122.131 46.4146 120.525 45.8445C118.918 45.2227 117.752 44.1085 117.027 42.502C116.301 40.8955 115.939 38.5635 115.939 35.506V16.3059C115.939 12.6784 116.742 10.1909 118.348 8.84355C120.007 7.49617 122.727 6.82249 126.51 6.82249C130.19 6.82249 132.833 7.49617 134.439 8.84355C136.097 10.1909 136.927 12.6784 136.927 16.3059V26.2558H120.758V37.1384C120.758 39.6259 121.147 41.3619 121.924 42.3465C122.701 43.2793 124.282 43.7457 126.666 43.7457C128.842 43.7457 130.293 43.2793 131.019 42.3465C131.744 41.4137 132.107 39.6777 132.107 37.1384V32.1635H136.927V35.4283C136.927 38.434 136.564 40.766 135.838 42.4243C135.113 44.0308 133.999 45.1449 132.496 45.7668C131.045 46.3887 129.153 46.6996 126.821 46.6996ZM120.758 23.7683H132.107V16.1505C132.107 13.9739 131.744 12.3934 131.019 11.4087C130.293 10.4241 128.791 9.93181 126.51 9.93181C124.23 9.93181 122.701 10.4241 121.924 11.4087C121.147 12.3934 120.758 13.9739 120.758 16.1505V23.7683Z" fill="white"/>
</svg>
